<svg xmlns="http://www.w3.org/2000/svg" xmlns:xlink="http://www.w3.org/1999/xlink" width="500" zoomAndPan="magnify" viewBox="0 0 375 374.999991" height="500" preserveAspectRatio="xMidYMid meet" version="1.0"><defs><clipPath id="8ed4e3d387"><path d="M 27 0 L 348 0 C 355.160156 0 362.027344 2.84375 367.09375 7.90625 C 372.15625 12.972656 375 19.839844 375 27 L 375 348 C 375 355.160156 372.15625 362.027344 367.09375 367.09375 C 362.027344 372.15625 355.160156 375 348 375 L 27 375 C 19.839844 375 12.972656 372.15625 7.90625 367.09375 C 2.84375 362.027344 0 355.160156 0 348 L 0 27 C 0 12.089844 12.089844 0 27 0 Z M 27 0 " clip-rule="nonzero"/></clipPath></defs><g clip-path="url(#8ed4e3d387)"><rect x="-37.5" width="450" fill="#1e1e1e" y="-37.499999" height="449.999989" fill-opacity="1"/></g><path fill="#4caf50" d="M 308.289062 187.664062 C 308.289062 254.273438 254.273438 308.289062 187.664062 308.289062 C 121.054688 308.289062 67.039062 254.273438 67.039062 187.664062 C 67.039062 121.054688 121.054688 67.039062 187.664062 67.039062 C 254.273438 67.039062 308.289062 121.054688 308.289062 187.664062 Z M 308.289062 187.664062 " fill-opacity="1" fill-rule="nonzero"/><path fill="#ffc107" d="M 187.664062 67.039062 L 187.664062 187.664062 L 235.914062 211.789062 L 182.578125 308.289062 C 184.488281 308.289062 185.75 308.289062 187.664062 308.289062 C 254.324219 308.289062 308.289062 254.324219 308.289062 187.664062 C 308.289062 121 254.324219 67.039062 187.664062 67.039062 Z M 187.664062 67.039062 " fill-opacity="1" fill-rule="nonzero"/><path fill="#4caf50" d="M 308.289062 187.664062 C 308.289062 254.273438 254.273438 308.289062 187.664062 308.289062 C 121.054688 308.289062 67.039062 254.273438 67.039062 187.664062 C 67.039062 121.054688 121.054688 67.039062 187.664062 67.039062 C 254.273438 67.039062 308.289062 121.054688 308.289062 187.664062 Z M 308.289062 187.664062 " fill-opacity="1" fill-rule="nonzero"/><path fill="#ffc107" d="M 187.664062 67.039062 L 187.664062 187.664062 L 235.914062 211.789062 L 182.578125 308.289062 C 184.488281 308.289062 185.75 308.289062 187.664062 308.289062 C 254.324219 308.289062 308.289062 254.324219 308.289062 187.664062 C 308.289062 121 254.324219 67.039062 187.664062 67.039062 Z M 187.664062 67.039062 " fill-opacity="1" fill-rule="nonzero"/><path fill="#f44336" d="M 295.261719 133.382812 L 187.664062 133.382812 L 187.664062 211.789062 L 169.570312 205.757812 L 86.097656 122.886719 L 85.976562 122.886719 C 107.328125 89.292969 144.902344 67.039062 187.664062 67.039062 C 234.707031 67.039062 275.417969 94.058594 295.261719 133.382812 Z M 295.261719 133.382812 " fill-opacity="1" fill-rule="nonzero"/><path fill="#dd2c00" d="M 86.085938 122.910156 L 139.417969 212.546875 L 169.570312 205.757812 Z M 86.085938 122.910156 " fill-opacity="1" fill-rule="nonzero"/><path fill="#558b2f" d="M 182.578125 308.289062 L 236.460938 211.433594 L 211.789062 193.695312 Z M 182.578125 308.289062 " fill-opacity="1" fill-rule="nonzero"/><path fill="#f9a825" d="M 295.410156 133.382812 L 187.664062 133.382812 L 178.140625 161.003906 Z M 295.410156 133.382812 " fill-opacity="1" fill-rule="nonzero"/><path fill="#ffffff" d="M 241.945312 187.664062 C 241.945312 217.632812 217.632812 241.945312 187.664062 241.945312 C 157.691406 241.945312 133.382812 217.632812 133.382812 187.664062 C 133.382812 157.691406 157.691406 133.382812 187.664062 133.382812 C 217.632812 133.382812 241.945312 157.691406 241.945312 187.664062 Z M 241.945312 187.664062 " fill-opacity="1" fill-rule="nonzero"/><path fill="#2196f3" d="M 229.882812 187.664062 C 229.882812 210.984375 210.984375 229.882812 187.664062 229.882812 C 164.339844 229.882812 145.445312 210.984375 145.445312 187.664062 C 145.445312 164.339844 164.339844 145.445312 187.664062 145.445312 C 210.984375 145.445312 229.882812 164.339844 229.882812 187.664062 Z M 229.882812 187.664062 " fill-opacity="1" fill-rule="nonzero"/></svg>